{"accessors":[{"bufferView":0,"byteOffset":0,"componentType":5126,"count":562,"max":[0.5,1,0.5],"min":[-0.5,-1,-0.5],"normalized":false,"type":"VEC3"},{"bufferView":1,"byteOffset":0,"componentType":5126,"count":562,"max":[1,-0.004888,1,1],"min":[-1,-0.004888,-1,1],"normalized":false,"type":"VEC4"},{"bufferView":2,"byteOffset":0,"componentType":5126,"count":562,"max":[0.999976,0.999976,0.999976],"min":[-0.999976,-0.999976,-0.999976],"normalized":false,"type":"VEC3"},{"bufferView":3,"byteOffset":0,"componentType":5126,"count":562,"max":[1,1],"min":[0,0],"normalized":false,"type":"VEC2"},{"bufferView":4,"byteOffset":0,"componentType":5125,"count":2304,"max":[521],"min":[0],"normalized":false,"type":"SCALAR"},{"bufferView":5,"byteOffset":0,"componentType":5126,"count":24,"max":[0.5,0.5,0.5],"min":[-0.5,-0.5,-0.5],"normalized":false,"type":"VEC3"},{"bufferView":6,"byteOffset":0,"componentType":5126,"count":24,"max":[1,-0.004888,1,1],"min":[-1,-0.004888,-1,1],"normalized":false,"type":"VEC4"},{"bufferView":7,"byteOffset":0,"componentType":5126,"count":24,"max":[0.999976,0.999976,0.999976],"min":[-0.999976,-0.999976,-0.999976],"normalized":false,"type":"VEC3"},{"bufferView":8,"byteOffset":0,"componentType":5126,"count":24,"max":[1,1],"min":[0,0],"normalized":false,"type":"VEC2"},{"bufferView":9,"byteOffset":0,"componentType":5125,"count":36,"max":[23],"min":[0],"normalized":false,"type":"SCALAR"},{"bufferView":10,"byteOffset":0,"componentType":5126,"count":20,"max":[0.5,0.5,0.5],"min":[-0.5,-0.5,-0.5],"normalized":false,"type":"VEC3"},{"bufferView":11,"byteOffset":0,"componentType":5126,"count":20,"max":[1,-0.004888,1,1],"min":[-1,-0.004888,-1,1],"normalized":false,"type":"VEC4"},{"bufferView":12,"byteOffset":0,"componentType":5126,"count":20,"max":[0.89422,0.4476,0.999976],"min":[-0.895787,-0.999976,-0.999976],"normalized":false,"type":"VEC3"},{"bufferView":13,"byteOffset":0,"componentType":5126,"count":20,"max":[1,1],"min":[0,0],"normalized":false,"type":"VEC2"},{"bufferView":14,"byteOffset":0,"componentType":5125,"count":24,"max":[19],"min":[2],"normalized":false,"type":"SCALAR"},{"bufferView":15,"byteOffset":0,"componentType":5126,"count":20,"max":[0.5,0.5,0.5],"min":[-0.5,-0.5,-0.5],"normalized":false,"type":"VEC3"},{"bufferView":16,"byteOffset":0,"componentType":5126,"count":20,"max":[1,-0.004888,1,1],"min":[-1,-0.004888,-1,1],"normalized":false,"type":"VEC4"},{"bufferView":17,"byteOffset":0,"componentType":5126,"count":20,"max":[0.89422,0.4476,0.999976],"min":[-0.895787,-0.999976,-0.999976],"normalized":false,"type":"VEC3"},{"bufferView":18,"byteOffset":0,"componentType":5126,"count":20,"max":[1,1],"min":[0,0],"normalized":false,"type":"VEC2"},{"bufferView":19,"byteOffset":0,"componentType":5125,"count":24,"max":[19],"min":[2],"normalized":false,"type":"SCALAR"},{"bufferView":20,"byteOffset":0,"componentType":5126,"count":20,"max":[0.5,0.5,0.5],"min":[-0.5,-0.5,-0.5],"normalized":false,"type":"VEC3"},{"bufferView":21,"byteOffset":0,"componentType":5126,"count":20,"max":[1,-0.004888,1,1],"min":[-1,-0.004888,-1,1],"normalized":false,"type":"VEC4"},{"bufferView":22,"byteOffset":0,"componentType":5126,"count":20,"max":[0.89422,0.4476,0.999976],"min":[-0.895787,-0.999976,-0.999976],"normalized":false,"type":"VEC3"},{"bufferView":23,"byteOffset":0,"componentType":5126,"count":20,"max":[1,1],"min":[0,0],"normalized":false,"type":"VEC2"},{"bufferView":24,"byteOffset":0,"componentType":5125,"count":24,"max":[19],"min":[2],"normalized":false,"type":"SCALAR"},{"bufferView":25,"byteOffset":0,"componentType":5126,"count":20,"max":[0.5,0.5,0.5],"min":[-0.5,-0.5,-0.5],"normalized":false,"type":"VEC3"},{"bufferView":26,"byteOffset":0,"componentType":5126,"count":20,"max":[1,-0.004888,1,1],"min":[-1,-0.004888,-1,1],"normalized":false,"type":"VEC4"},{"bufferView":27,"byteOffset":0,"componentType":5126,"count":20,"max":[0.89422,0.4476,0.999976],"min":[-0.895787,-0.999976,-0.999976],"normalized":false,"type":"VEC3"},{"bufferView":28,"byteOffset":0,"componentType":5126,"count":20,"max":[1,1],"min":[0,0],"normalized":false,"type":"VEC2"},{"bufferView":29,"byteOffset":0,"componentType":5125,"count":24,"max":[19],"min":[2],"normalized":false,"type":"SCALAR"},{"bufferView":30,"byteOffset":0,"componentType":5126,"count":20,"max":[0.5,0.5,0.5],"min":[-0.5,-0.5,-0.5],"normalized":false,"type":"VEC3"},{"bufferView":31,"byteOffset":0,"componentType":5126,"count":20,"max":[1,-0.004888,1,1],"min":[-1,-0.004888,-1,1],"normalized":false,"type":"VEC4"},{"bufferView":32,"byteOffset":0,"componentType":5126,"count":20,"max":[0.89422,0.4476,0.999976],"min":[-0.895787,-0.999976,-0.999976],"normalized":false,"type":"VEC3"},{"bufferView":33,"byteOffset":0,"componentType":5126,"count":20,"max":[1,1],"min":[0,0],"normalized":false,"type":"VEC2"},{"bufferView":34,"byteOffset":0,"componentType":5125,"count":24,"max":[19],"min":[2],"normalized":false,"type":"SCALAR"},{"bufferView":35,"byteOffset":0,"componentType":5126,"count":20,"max":[0.5,0.5,0.5],"min":[-0.5,-0.5,-0.5],"normalized":false,"type":"VEC3"},{"bufferView":36,"byteOffset":0,"componentType":5126,"count":20,"max":[1,-0.004888,1,1],"min":[-1,-0.004888,-1,1],"normalized":false,"type":"VEC4"},{"bufferView":37,"byteOffset":0,"componentType":5126,"count":20,"max":[0.89422,0.4476,0.999976],"min":[-0.895787,-0.999976,-0.999976],"normalized":false,"type":"VEC3"},{"bufferView":38,"byteOffset":0,"componentType":5126,"count":20,"max":[1,1],"min":[0,0],"normalized":false,"type":"VEC2"},{"bufferView":39,"byteOffset":0,"componentType":5125,"count":24,"max":[19],"min":[2],"normalized":false,"type":"SCALAR"},{"bufferView":40,"byteOffset":0,"componentType":5126,"count":20,"max":[0.5,0.5,0.5],"min":[-0.5,-0.5,-0.5],"normalized":false,"type":"VEC3"},{"bufferView":41,"byteOffset":0,"componentType":5126,"count":20,"max":[1,-0.004888,1,1],"min":[-1,-0.004888,-1,1],"normalized":false,"type":"VEC4"},{"bufferView":42,"byteOffset":0,"componentType":5126,"count":20,"max":[0.89422,0.4476,0.999976],"min":[-0.895787,-0.999976,-0.999976],"normalized":false,"type":"VEC3"},{"bufferView":43,"byteOffset":0,"componentType":5126,"count":20,"max":[1,1],"min":[0,0],"normalized":false,"type":"VEC2"},{"bufferView":44,"byteOffset":0,"componentType":5125,"count":24,"max":[19],"min":[2],"normalized":false,"type":"SCALAR"},{"bufferView":45,"byteOffset":0,"componentType":5126,"count":20,"max":[0.5,0.5,0.5],"min":[-0.5,-0.5,-0.5],"normalized":false,"type":"VEC3"},{"bufferView":46,"byteOffset":0,"componentType":5126,"count":20,"max":[1,-0.004888,1,1],"min":[-1,-0.004888,-1,1],"normalized":false,"type":"VEC4"},{"bufferView":47,"byteOffset":0,"componentType":5126,"count":20,"max":[0.89422,0.4476,0.999976],"min":[-0.895787,-0.999976,-0.999976],"normalized":false,"type":"VEC3"},{"bufferView":48,"byteOffset":0,"componentType":5126,"count":20,"max":[1,1],"min":[0,0],"normalized":false,"type":"VEC2"},{"bufferView":49,"byteOffset":0,"componentType":5125,"count":24,"max":[19],"min":[2],"normalized":false,"type":"SCALAR"},{"bufferView":50,"byteOffset":0,"componentType":5126,"count":20,"max":[0.5,0.5,0.5],"min":[-0.5,-0.5,-0.5],"normalized":false,"type":"VEC3"},{"bufferView":51,"byteOffset":0,"componentType":5126,"count":20,"max":[1,-0.004888,1,1],"min":[-1,-0.004888,-1,1],"normalized":false,"type":"VEC4"},{"bufferView":52,"byteOffset":0,"componentType":5126,"count":20,"max":[0.89422,0.4476,0.999976],"min":[-0.895787,-0.999976,-0.999976],"normalized":false,"type":"VEC3"},{"bufferView":53,"byteOffset":0,"componentType":5126,"count":20,"max":[1,1],"min":[0,0],"normalized":false,"type":"VEC2"},{"bufferView":54,"byteOffset":0,"componentType":5125,"count":24,"max":[19],"min":[2],"normalized":false,"type":"SCALAR"},{"bufferView":55,"byteOffset":0,"componentType":5126,"count":20,"max":[0.5,0.5,0.5],"min":[-0.5,-0.5,-0.5],"normalized":false,"type":"VEC3"},{"bufferView":56,"byteOffset":0,"componentType":5126,"count":20,"max":[1,-0.004888,1,1],"min":[-1,-0.004888,-1,1],"normalized":false,"type":"VEC4"},{"bufferView":57,"byteOffset":0,"componentType":5126,"count":20,"max":[0.89422,0.4476,0.999976],"min":[-0.895787,-0.999976,-0.999976],"normalized":false,"type":"VEC3"},{"bufferView":58,"byteOffset":0,"componentType":5126,"count":20,"max":[1,1],"min":[0,0],"normalized":false,"type":"VEC2"},{"bufferView":59,"byteOffset":0,"componentType":5125,"count":24,"max":[19],"min":[2],"normalized":false,"type":"SCALAR"},{"bufferView":60,"byteOffset":0,"componentType":5126,"count":20,"max":[0.5,0.5,0.5],"min":[-0.5,-0.5,-0.5],"normalized":false,"type":"VEC3"},{"bufferView":61,"byteOffset":0,"componentType":5126,"count":20,"max":[1,-0.004888,1,1],"min":[-1,-0.004888,-1,1],"normalized":false,"type":"VEC4"},{"bufferView":62,"byteOffset":0,"componentType":5126,"count":20,"max":[0.89422,0.4476,0.999976],"min":[-0.895787,-0.999976,-0.999976],"normalized":false,"type":"VEC3"},{"bufferView":63,"byteOffset":0,"componentType":5126,"count":20,"max":[1,1],"min":[0,0],"normalized":false,"type":"VEC2"},{"bufferView":64,"byteOffset":0,"componentType":5125,"count":24,"max":[19],"min":[2],"normalized":false,"type":"SCALAR"},{"bufferView":65,"byteOffset":0,"componentType":5126,"count":20,"max":[0.5,0.5,0.5],"min":[-0.5,-0.5,-0.5],"normalized":false,"type":"VEC3"},{"bufferView":66,"byteOffset":0,"componentType":5126,"count":20,"max":[1,-0.004888,1,1],"min":[-1,-0.004888,-1,1],"normalized":false,"type":"VEC4"},{"bufferView":67,"byteOffset":0,"componentType":5126,"count":20,"max":[0.89422,0.4476,0.999976],"min":[-0.895787,-0.999976,-0.999976],"normalized":false,"type":"VEC3"},{"bufferView":68,"byteOffset":0,"componentType":5126,"count":20,"max":[1,1],"min":[0,0],"normalized":false,"type":"VEC2"},{"bufferView":69,"byteOffset":0,"componentType":5125,"count":24,"max":[19],"min":[2],"normalized":false,"type":"SCALAR"},{"bufferView":70,"byteOffset":0,"componentType":5126,"count":20,"max":[0.5,0.5,0.5],"min":[-0.5,-0.5,-0.5],"normalized":false,"type":"VEC3"},{"bufferView":71,"byteOffset":0,"componentType":5126,"count":20,"max":[1,-0.004888,1,1],"min":[-1,-0.004888,-1,1],"normalized":false,"type":"VEC4"},{"bufferView":72,"byteOffset":0,"componentType":5126,"count":20,"max":[0.89422,0.4476,0.999976],"min":[-0.895787,-0.999976,-0.999976],"normalized":false,"type":"VEC3"},{"bufferView":73,"byteOffset":0,"componentType":5126,"count":20,"max":[1,1],"min":[0,0],"normalized":false,"type":"VEC2"},{"bufferView":74,"byteOffset":0,"componentType":5125,"count":24,"max":[19],"min":[2],"normalized":false,"type":"SCALAR"},{"bufferView":75,"byteOffset":0,"componentType":5126,"count":2223,"max":[0.499434,0.5,0.499434],"min":[-0.499434,-0.5,-0.499434],"normalized":false,"type":"VEC3"},{"bufferView":76,"byteOffset":0,"componentType":5126,"count":2223,"max":[1,-0.004888,1,1],"min":[-1,-0.004888,-1,1],"normalized":false,"type":"VEC4"},{"bufferView":77,"byteOffset":0,"componentType":5126,"count":2223,"max":[0.99893,0.999976,0.99893],"min":[-0.999117,-0.999976,-0.999117],"normalized":false,"type":"VEC3"},{"bufferView":78,"byteOffset":0,"componentType":5126,"count":2223,"max":[1,1],"min":[0,0],"normalized":false,"type":"VEC2"},{"bufferView":79,"byteOffset":0,"componentType":5125,"count":12672,"max":[2209],"min":[0],"normalized":false,"type":"SCALAR"},{"bufferView":80,"byteOffset":0,"componentType":5126,"count":562,"max":[0.5,1,0.5],"min":[-0.5,-1,-0.5],"normalized":false,"type":"VEC3"},{"bufferView":81,"byteOffset":0,"componentType":5126,"count":562,"max":[1,-0.004888,1,1],"min":[-1,-0.004888,-1,1],"normalized":false,"type":"VEC4"},{"bufferView":82,"byteOffset":0,"componentType":5126,"count":562,"max":[0.999976,0.999976,0.999976],"min":[-0.999976,-0.999976,-0.999976],"normalized":false,"type":"VEC3"},{"bufferView":83,"byteOffset":0,"componentType":5126,"count":562,"max":[1,1],"min":[0,0],"normalized":false,"type":"VEC2"},{"bufferView":84,"byteOffset":0,"componentType":5125,"count":2304,"max":[521],"min":[0],"normalized":false,"type":"SCALAR"}],"asset":{"generator":"Godot Engine v4.0.alpha14.official@106b6805018649b13da9e9508e80611f62ed660a","version":"2.0"},"bufferViews":[{"buffer":0,"byteLength":6744,"byteOffset":0},{"buffer":0,"byteLength":8992,"byteOffset":6744},{"buffer":0,"byteLength":6744,"byteOffset":15736},{"buffer":0,"byteLength":4496,"byteOffset":22480},{"buffer":0,"byteLength":9216,"byteOffset":26976},{"buffer":0,"byteLength":288,"byteOffset":36192},{"buffer":0,"byteLength":384,"byteOffset":36480},{"buffer":0,"byteLength":288,"byteOffset":36864},{"buffer":0,"byteLength":192,"byteOffset":37152},{"buffer":0,"byteLength":144,"byteOffset":37344},{"buffer":0,"byteLength":240,"byteOffset":37488},{"buffer":0,"byteLength":320,"byteOffset":37728},{"buffer":0,"byteLength":240,"byteOffset":38048},{"buffer":0,"byteLength":160,"byteOffset":38288},{"buffer":0,"byteLength":96,"byteOffset":38448},{"buffer":0,"byteLength":240,"byteOffset":38544},{"buffer":0,"byteLength":320,"byteOffset":38784},{"buffer":0,"byteLength":240,"byteOffset":39104},{"buffer":0,"byteLength":160,"byteOffset":39344},{"buffer":0,"byteLength":96,"byteOffset":39504},{"buffer":0,"byteLength":240,"byteOffset":39600},{"buffer":0,"byteLength":320,"byteOffset":39840},{"buffer":0,"byteLength":240,"byteOffset":40160},{"buffer":0,"byteLength":160,"byteOffset":40400},{"buffer":0,"byteLength":96,"byteOffset":40560},{"buffer":0,"byteLength":240,"byteOffset":40656},{"buffer":0,"byteLength":320,"byteOffset":40896},{"buffer":0,"byteLength":240,"byteOffset":41216},{"buffer":0,"byteLength":160,"byteOffset":41456},{"buffer":0,"byteLength":96,"byteOffset":41616},{"buffer":0,"byteLength":240,"byteOffset":41712},{"buffer":0,"byteLength":320,"byteOffset":41952},{"buffer":0,"byteLength":240,"byteOffset":42272},{"buffer":0,"byteLength":160,"byteOffset":42512},{"buffer":0,"byteLength":96,"byteOffset":42672},{"buffer":0,"byteLength":240,"byteOffset":42768},{"buffer":0,"byteLength":320,"byteOffset":43008},{"buffer":0,"byteLength":240,"byteOffset":43328},{"buffer":0,"byteLength":160,"byteOffset":43568},{"buffer":0,"byteLength":96,"byteOffset":43728},{"buffer":0,"byteLength":240,"byteOffset":43824},{"buffer":0,"byteLength":320,"byteOffset":44064},{"buffer":0,"byteLength":240,"byteOffset":44384},{"buffer":0,"byteLength":160,"byteOffset":44624},{"buffer":0,"byteLength":96,"byteOffset":44784},{"buffer":0,"byteLength":240,"byteOffset":44880},{"buffer":0,"byteLength":320,"byteOffset":45120},{"buffer":0,"byteLength":240,"byteOffset":45440},{"buffer":0,"byteLength":160,"byteOffset":45680},{"buffer":0,"byteLength":96,"byteOffset":45840},{"buffer":0,"byteLength":240,"byteOffset":45936},{"buffer":0,"byteLength":320,"byteOffset":46176},{"buffer":0,"byteLength":240,"byteOffset":46496},{"buffer":0,"byteLength":160,"byteOffset":46736},{"buffer":0,"byteLength":96,"byteOffset":46896},{"buffer":0,"byteLength":240,"byteOffset":46992},{"buffer":0,"byteLength":320,"byteOffset":47232},{"buffer":0,"byteLength":240,"byteOffset":47552},{"buffer":0,"byteLength":160,"byteOffset":47792},{"buffer":0,"byteLength":96,"byteOffset":47952},{"buffer":0,"byteLength":240,"byteOffset":48048},{"buffer":0,"byteLength":320,"byteOffset":48288},{"buffer":0,"byteLength":240,"byteOffset":48608},{"buffer":0,"byteLength":160,"byteOffset":48848},{"buffer":0,"byteLength":96,"byteOffset":49008},{"buffer":0,"byteLength":240,"byteOffset":49104},{"buffer":0,"byteLength":320,"byteOffset":49344},{"buffer":0,"byteLength":240,"byteOffset":49664},{"buffer":0,"byteLength":160,"byteOffset":49904},{"buffer":0,"byteLength":96,"byteOffset":50064},{"buffer":0,"byteLength":240,"byteOffset":50160},{"buffer":0,"byteLength":320,"byteOffset":50400},{"buffer":0,"byteLength":240,"byteOffset":50720},{"buffer":0,"byteLength":160,"byteOffset":50960},{"buffer":0,"byteLength":96,"byteOffset":51120},{"buffer":0,"byteLength":26676,"byteOffset":51216},{"buffer":0,"byteLength":35568,"byteOffset":77892},{"buffer":0,"byteLength":26676,"byteOffset":113460},{"buffer":0,"byteLength":17784,"byteOffset":140136},{"buffer":0,"byteLength":50688,"byteOffset":157920},{"buffer":0,"byteLength":6744,"byteOffset":208608},{"buffer":0,"byteLength":8992,"byteOffset":215352},{"buffer":0,"byteLength":6744,"byteOffset":224344},{"buffer":0,"byteLength":4496,"byteOffset":231088},{"buffer":0,"byteLength":9216,"byteOffset":235584}],"buffers":[{"byteLength":244800,"uri":"weapon0.bin"}],"materials":[{"name":"material_0","pbrMetallicRoughness":{"baseColorFactor":[0.0630098357796669,0.0630098357796669,0.0630098357796669,1],"metallicFactor":0,"roughnessFactor":1}},{"emissiveFactor":[0,0.992303431034088,0.999999940395355],"name":"material_1","pbrMetallicRoughness":{"baseColorFactor":[0.0069954083301127,0.20863701403141,0.999999284744263,1],"metallicFactor":0,"roughnessFactor":1}},{"name":"material_02","pbrMetallicRoughness":{"baseColorFactor":[0,0.381325274705887,0.66538679599762,1],"metallicFactor":0.379999995231628,"roughnessFactor":0.330000013113022}},{"emissiveFactor":[0,0.992303431034088,0.999999940395355],"name":"material_12","pbrMetallicRoughness":{"baseColorFactor":[0.0069954083301127,0.20863701403141,0.999999284744263,1],"metallicFactor":0,"roughnessFactor":1}},{"name":"material_2","pbrMetallicRoughness":{"baseColorFactor":[0.0630098357796669,0.0630098357796669,0.0630098357796669,1],"metallicFactor":0,"roughnessFactor":1}}],"meshes":[{"extras":{"targetNames":[]},"primitives":[{"attributes":{"NORMAL":2,"POSITION":0,"TANGENT":1,"TEXCOORD_0":3},"indices":4,"material":0,"mode":4}]},{"extras":{"targetNames":[]},"primitives":[{"attributes":{"NORMAL":7,"POSITION":5,"TANGENT":6,"TEXCOORD_0":8},"indices":9,"material":1,"mode":4}]},{"extras":{"targetNames":[]},"primitives":[{"attributes":{"NORMAL":12,"POSITION":10,"TANGENT":11,"TEXCOORD_0":13},"indices":14,"material":2,"mode":4}]},{"extras":{"targetNames":[]},"primitives":[{"attributes":{"NORMAL":17,"POSITION":15,"TANGENT":16,"TEXCOORD_0":18},"indices":19,"material":2,"mode":4}]},{"extras":{"targetNames":[]},"primitives":[{"attributes":{"NORMAL":22,"POSITION":20,"TANGENT":21,"TEXCOORD_0":23},"indices":24,"material":2,"mode":4}]},{"extras":{"targetNames":[]},"primitives":[{"attributes":{"NORMAL":27,"POSITION":25,"TANGENT":26,"TEXCOORD_0":28},"indices":29,"material":2,"mode":4}]},{"extras":{"targetNames":[]},"primitives":[{"attributes":{"NORMAL":32,"POSITION":30,"TANGENT":31,"TEXCOORD_0":33},"indices":34,"material":2,"mode":4}]},{"extras":{"targetNames":[]},"primitives":[{"attributes":{"NORMAL":37,"POSITION":35,"TANGENT":36,"TEXCOORD_0":38},"indices":39,"material":2,"mode":4}]},{"extras":{"targetNames":[]},"primitives":[{"attributes":{"NORMAL":42,"POSITION":40,"TANGENT":41,"TEXCOORD_0":43},"indices":44,"material":2,"mode":4}]},{"extras":{"targetNames":[]},"primitives":[{"attributes":{"NORMAL":47,"POSITION":45,"TANGENT":46,"TEXCOORD_0":48},"indices":49,"material":2,"mode":4}]},{"extras":{"targetNames":[]},"primitives":[{"attributes":{"NORMAL":52,"POSITION":50,"TANGENT":51,"TEXCOORD_0":53},"indices":54,"material":2,"mode":4}]},{"extras":{"targetNames":[]},"primitives":[{"attributes":{"NORMAL":57,"POSITION":55,"TANGENT":56,"TEXCOORD_0":58},"indices":59,"material":2,"mode":4}]},{"extras":{"targetNames":[]},"primitives":[{"attributes":{"NORMAL":62,"POSITION":60,"TANGENT":61,"TEXCOORD_0":63},"indices":64,"material":2,"mode":4}]},{"extras":{"targetNames":[]},"primitives":[{"attributes":{"NORMAL":67,"POSITION":65,"TANGENT":66,"TEXCOORD_0":68},"indices":69,"material":2,"mode":4}]},{"extras":{"targetNames":[]},"primitives":[{"attributes":{"NORMAL":72,"POSITION":70,"TANGENT":71,"TEXCOORD_0":73},"indices":74,"material":2,"mode":4}]},{"extras":{"targetNames":[]},"primitives":[{"attributes":{"NORMAL":77,"POSITION":75,"TANGENT":76,"TEXCOORD_0":78},"indices":79,"material":3,"mode":4}]},{"extras":{"targetNames":[]},"primitives":[{"attributes":{"NORMAL":82,"POSITION":80,"TANGENT":81,"TEXCOORD_0":83},"indices":84,"material":4,"mode":4}]}],"nodes":[{"children":[1,4],"extensions":{},"name":"weapon"},{"children":[2,3],"extensions":{},"name":"Hammer"},{"extensions":{},"mesh":0,"name":"MeshInstance3D","scale":[0.365164995193481,3.36803007125854,0.365164995193481],"translation":[0,3.30576992034912,0]},{"extensions":{},"mesh":1,"name":"MeshInstance3D2","rotation":[0.00232100579887629,0.0121506629511714,0.00188688200432807,0.999921679496765],"scale":[1.01184606552124,1.01184809207916,1.97043311595917],"translation":[-0.02860200032592,6.62485980987549,0.143332004547119]},{"children":[5],"extensions":{},"name":"Mace","scale":[7,7,7]},{"children":[6,7,8,9,10,11,12,13,14,15,16,17,18,19,20],"extensions":{},"name":"Node3D"},{"extensions":{},"mesh":2,"name":"MeshInstance3D3","scale":[0.0929607003927231,0.0929607003927231,0.0929607003927231],"translation":[0,1.16754996776581,0]},{"extensions":{},"mesh":3,"name":"MeshInstance3D32","rotation":[0,0,0.382683396339417,0.923879563808441],"scale":[0.0929606333374977,0.0929606333374977,0.0929607003927231],"translation":[-0.17615699768066,1.06587994098663,0]},{"extensions":{},"mesh":4,"name":"MeshInstance3D7","rotation":[0,0,0.70710676908493,0.70710676908493],"scale":[0.0929607003927231,0.0929607003927231,0.0929607003927231],"translation":[-0.23605599999428,0.945227026939392,0]},{"extensions":{},"mesh":5,"name":"MeshInstance3D11","rotation":[0,0,0.923879563808441,0.382683426141739],"scale":[0.0929606184363365,0.0929606184363365,0.0929607003927231],"translation":[-0.1718720048666,0.784579992294312,0]},{"extensions":{},"mesh":6,"name":"MeshInstance3D12","rotation":[0,0,0.923879683017731,-0.38268306851387],"scale":[0.0929607078433037,0.0929607078433037,0.0929607003927231],"translation":[0.168681994080544,0.784579992294312,0]},{"extensions":{},"mesh":7,"name":"MeshInstance3D13","rotation":[-0.62689328193665,-0.2596675157547,0.678644478321075,0.281103551387787],"scale":[0.0929606780409813,0.0929606854915619,0.0929606780409813],"translation":[-0.01507289987057,0.784579992294312,-0.16974300146103]},{"extensions":{},"mesh":8,"name":"MeshInstance3D14","rotation":[-0.62689328193665,0.2596675157547,0.678644478321075,-0.28110355138779],"scale":[0.0929606780409813,0.0929607525467873,0.0929606780409813],"translation":[0.0118835996836424,0.784579992294312,0.169743001461029]},{"extensions":{},"mesh":9,"name":"MeshInstance3D8","rotation":[0,0,-0.70710676908493,0.70710676908493],"scale":[0.0929607003927231,0.0929607003927231,0.0929607003927231],"translation":[0.218803003430367,0.945227026939392,0]},{"extensions":{},"mesh":10,"name":"MeshInstance3D9","rotation":[-0.47864171862602,-0.47864174842834,0.520482540130615,0.52048248052597],"scale":[0.0929606929421425,0.0929606780409813,0.0929606780409813],"translation":[-0.02764140069485,0.945227026939392,-0.22663299739361]},{"extensions":{},"mesh":11,"name":"MeshInstance3D10","rotation":[0.478641718626022,-0.47864174842834,-0.52048254013062,0.52048248052597],"scale":[0.0929606929421425,0.0929606780409813,0.0929606780409813],"translation":[0.0103887002915144,0.945227026939392,0.226632997393608]},{"extensions":{},"mesh":12,"name":"MeshInstance3D4","rotation":[0,0,-0.38268339633942,0.923879563808441],"scale":[0.0929606333374977,0.0929606333374977,0.0929607003927231],"translation":[0.164472997188568,1.06587994098663,0]},{"extensions":{},"mesh":13,"name":"MeshInstance3D5","rotation":[-0.27078440785408,-0.65373182296753,0.270411312580109,0.652830958366394],"scale":[0.0929606780409813,0.0929606780409813,0.0929607003927231],"translation":[-0.00560689019039,1.06587994098663,-0.17031499743462]},{"extensions":{},"mesh":14,"name":"MeshInstance3D6","rotation":[0.27078440785408,-0.65373182296753,-0.27041131258011,0.652830958366394],"scale":[0.0929606780409813,0.0929606780409813,0.0929607003927231],"translation":[-0.00607655011117,1.06587994098663,0.170314997434616]},{"extensions":{},"mesh":15,"name":"MeshInstance3D22","scale":[0.401230990886688,0.401230990886688,0.401230990886688],"translation":[0,0.935566008090973,0]},{"extensions":{},"mesh":16,"name":"MeshInstance3D15","scale":[0.0443156994879246,0.481413006782532,0.0443156994879246],"translation":[0,0.493725001811981,0]}],"scene":0,"scenes":[{"nodes":[0]}]}